# xmcd
#
# Track frame offsets:
#	150
#	1231
#	19028
#	39515
#	55325
#	67827
#	85667
#	100880
#	119710
#	139337
#	158635
#	173587
#	189912
#
# Disc length: 2700 seconds
#
# Revision: 1
# Processed by: cddbd v1.5.2PL0 Copyright (c) Steve Scherf et al.
# Submitted via: audiograbber 1.83.01
#
DISCID=9c0a8a0d
DTITLE=Charlie Worsham - Beginning of Things
DYEAR=2017
DGENRE=Country
TTITLE0=Pants
TTITLE1=Please People Please
TTITLE2=Southern by the Grace of God
TTITLE3=Call You Up
TTITLE4=Lawn Chair Don't Care
TTITLE5=Only Way to Fly
TTITLE6=Old Time's Sake
TTITLE7=Cut Your Groove
TTITLE8=I Ain't Goin' Nowhere
TTITLE9=The Beginning of Things
TTITLE10=Birthday Saint
TTITLE11=I-55
TTITLE12=Take Me Drunk
EXTD=
EXTT0=
EXTT1=
EXTT2=
EXTT3=
EXTT4=
EXTT5=
EXTT6=
EXTT7=
EXTT8=
EXTT9=
EXTT10=
EXTT11=
EXTT12=
PLAYORDER=
